<svg height="1024" width="1024" xmlns="http://www.w3.org/2000/svg" xmlns:xlink="http://www.w3.org/1999/xlink" version="1.1" x="0px" y="0px" viewBox="0 0 60 60"><path d="M51.3720703,12.8999023H8.628418C7.1791992,12.8999023,6,14.0791016,6,15.5283203v2.6289063v7.6079102V44.472168 c0,1.4492188,1.1791992,2.6279297,2.628418,2.6279297h42.7436523C52.8212891,47.1000977,54,45.9213867,54,44.472168V25.7651367 v-7.6079102v-2.6289063C54,14.0791016,52.8212891,12.8999023,51.3720703,12.8999023z M8,20.1572266h44v3.6079102H8V20.1572266z M52,44.472168c0,0.3461914-0.28125,0.6279297-0.6279297,0.6279297H8.628418C8.2817383,45.1000977,8,44.8183594,8,44.472168 V25.7651367h44V44.472168z M8,18.1572266v-2.6289063c0-0.3466797,0.2817383-0.628418,0.628418-0.628418h42.7436523 C51.71875,14.8999023,52,15.1816406,52,15.5283203v2.6289063H8z"></path><rect x="11.6396484" y="33.5419922" width="10.5849609" height="2"></rect><rect x="11.6396484" y="39.1264648" width="16.3359375" height="2"></rect><path d="M40.4472656,42.5029297c0.8713379,0,1.6715698-0.2893066,2.328064-0.7658691 c0.6691284,0.4852905,1.465271,0.7658691,2.3057251,0.7658691c2.1962891,0,3.9833984-1.7871094,3.9833984-3.9838867 c0-2.1962891-1.7871094-3.9833984-3.9833984-3.9833984c-0.8400269,0-1.6362305,0.2804565-2.3057861,0.7658691 c-0.6564941-0.4765015-1.456665-0.7658691-2.3280029-0.7658691c-2.1962891,0-3.9833984,1.7871094-3.9833984,3.9833984 C36.4638672,40.7158203,38.2509766,42.5029297,40.4472656,42.5029297z M45.0810547,36.5356445 c1.09375,0,1.9833984,0.8896484,1.9833984,1.9833984s-0.8896484,1.9838867-1.9833984,1.9838867 c-0.3681641,0-0.7236328-0.1054688-1.0322266-0.2993164c0.0041504-0.008667,0.0053101-0.0182495,0.0093994-0.0269165 c0.0984497-0.213562,0.1737061-0.4377441,0.2334595-0.6694946c0.0128784-0.0490723,0.0341187-0.095459,0.045105-0.1450806 c0.059021-0.2723389,0.0938721-0.5533447,0.0938721-0.8430786c0-0.2896729-0.0348511-0.5707397-0.0938721-0.8430176 c-0.0108643-0.0491943-0.0319824-0.0952148-0.0447998-0.1439209c-0.0598145-0.2322388-0.1352539-0.4567871-0.2339478-0.6707153 c-0.0040283-0.0084839-0.005127-0.0179443-0.0092163-0.0264282C44.3574219,36.6411133,44.7128906,36.5356445,45.0810547,36.5356445z M40.4472656,36.5356445c0.5454712,0,1.039917,0.2214966,1.3988037,0.5789795l0.1383057,0.1719971 c0.203125,0.253418,0.4462891,0.6728516,0.4462891,1.2324219S42.1875,39.4980469,41.984375,39.7514648l-0.1392212,0.1729736 c-0.3588257,0.3571167-0.8528442,0.5784912-1.3978882,0.5784912c-1.09375,0-1.9833984-0.8901367-1.9833984-1.9838867 S39.3535156,36.5356445,40.4472656,36.5356445z"></path></svg>