<?xml version="1.0" encoding="utf-8"?>
<!-- Generator: Adobe Illustrator 26.1.0, SVG Export Plug-In . SVG Version: 6.00 Build 0)  -->
<svg version="1.1" id="图层_1" xmlns="http://www.w3.org/2000/svg" xmlns:xlink="http://www.w3.org/1999/xlink" x="0px" y="0px"
	 viewBox="0 0 16 16" style="enable-background:new 0 0 16 16;" xml:space="preserve">
<style type="text/css">
	.st0{filter:url(#Adobe_OpacityMaskFilter);}
	.st1{fill:#FFFFFF;}
	.st2{mask:url(#mask-0_00000027588979088071076250000009603293250807560091_);}
	.st3{fill:#222222;}
</style>
<defs>
	<filter id="Adobe_OpacityMaskFilter" filterUnits="userSpaceOnUse">
		<feColorMatrix  type="matrix" values="1 0 0 0 0  0 1 0 0 0  0 0 1 0 0  0 0 0 1 0"/>
	</filter>
</defs>
<mask maskUnits="userSpaceOnUse" id="mask-0_00000027588979088071076250000009603293250807560091_">
	<g class="st0">
		<path id="path_0_00000142877905958384020950000000532295265419838117_" class="st1" d="M0,16h16V0H0V16z"/>
	</g>
</mask>
<g class="st2">
</g>
<path id="直线_3" class="st3" d="M1.77,3.18c-0.05-0.05-0.09-0.1-0.12-0.15C1.61,2.98,1.58,2.92,1.55,2.86
	C1.53,2.8,1.51,2.74,1.5,2.67c-0.01-0.06-0.02-0.13-0.02-0.2s0.01-0.13,0.02-0.2c0.01-0.06,0.03-0.13,0.06-0.19
	c0.03-0.06,0.06-0.12,0.09-0.17c0.04-0.05,0.08-0.11,0.12-0.15c0.05-0.05,0.1-0.09,0.15-0.12c0.05-0.04,0.11-0.07,0.17-0.09
	C2.15,1.53,2.22,1.51,2.28,1.5c0.06-0.01,0.13-0.02,0.2-0.02s0.13,0.01,0.2,0.02C2.74,1.51,2.8,1.53,2.86,1.55
	c0.06,0.03,0.12,0.06,0.17,0.09c0.05,0.04,0.11,0.08,0.15,0.12l11.05,11.05l0,0c0.05,0.05,0.09,0.1,0.12,0.15
	c0.04,0.05,0.07,0.11,0.09,0.17c0.02,0.06,0.04,0.12,0.06,0.19c0.01,0.06,0.02,0.13,0.02,0.19c0,0.07-0.01,0.13-0.02,0.19
	c-0.01,0.06-0.03,0.13-0.06,0.19c-0.03,0.06-0.06,0.12-0.09,0.17c-0.04,0.05-0.08,0.1-0.12,0.15c-0.05,0.05-0.1,0.09-0.15,0.12
	c-0.05,0.04-0.11,0.07-0.17,0.09c-0.06,0.03-0.12,0.04-0.19,0.06c-0.06,0.01-0.13,0.02-0.19,0.02c-0.07,0-0.13-0.01-0.19-0.02
	c-0.06-0.01-0.13-0.03-0.19-0.06c-0.06-0.02-0.12-0.06-0.17-0.09c-0.05-0.04-0.11-0.08-0.15-0.12l0,0L1.77,3.18z"/>
<path id="直线_3_00000143612556757311529770000000320721095928496521_" class="st3" d="M2.48,2.48"/>
<path id="直线_3_00000057111071915874807530000016978778982959180214_" class="st3" d="M12.82,1.77c0.05-0.05,0.1-0.09,0.15-0.12
	c0.05-0.04,0.11-0.07,0.17-0.09c0.06-0.03,0.12-0.04,0.19-0.06c0.06-0.01,0.13-0.02,0.2-0.02s0.13,0.01,0.2,0.02
	c0.06,0.01,0.13,0.03,0.19,0.06c0.06,0.03,0.12,0.06,0.17,0.09c0.05,0.04,0.11,0.08,0.15,0.12c0.09,0.09,0.17,0.2,0.22,0.32
	c0.05,0.12,0.08,0.25,0.08,0.38c0,0.13-0.03,0.26-0.08,0.38c-0.05,0.12-0.12,0.23-0.22,0.32l0,0L3.18,14.23l0,0
	c-0.09,0.09-0.2,0.17-0.32,0.22c-0.12,0.05-0.25,0.08-0.38,0.08c-0.13,0-0.26-0.03-0.38-0.08c-0.12-0.05-0.23-0.12-0.32-0.22
	c-0.05-0.05-0.09-0.1-0.12-0.15c-0.04-0.05-0.07-0.11-0.09-0.17c-0.03-0.06-0.04-0.12-0.06-0.19c-0.01-0.06-0.02-0.13-0.02-0.2
	s0.01-0.13,0.02-0.2c0.01-0.06,0.03-0.13,0.06-0.19c0.03-0.06,0.06-0.12,0.09-0.17s0.08-0.11,0.12-0.15l0,0L12.82,1.77L12.82,1.77z"
	/>
<path id="直线_3_00000022547605436399336210000016301822799493449365_" class="st3" d="M2.48,2.48"/>
</svg>
