<svg xmlns="http://www.w3.org/2000/svg" xmlns:xlink="http://www.w3.org/1999/xlink" width="24" height="24" viewBox="0 0 24 24" fill="none"><g opacity="1"  transform="translate(0 0)  rotate(0)"><g opacity="1"  transform="translate(4.033203125 10.115478515625)  rotate(0)"><path id="路径 1 (轮廓)" fill-rule="evenodd" style="fill:#666666" opacity="1" d="M0.93 0L0 1.77002C0.01 1.77002 0.02 1.78002 0.04 1.79002C3.04 3.37004 5.68 4.16005 7.97 4.16005C10.84 4.16005 13.52 3.35004 16.01 1.72002L14.92 0.0500006C12.76 1.46002 10.44 2.16003 7.97 2.16003C6.01 2.16003 3.68 1.45002 0.97 0.0200002C0.96 0.0100001 0.94 0 0.93 0Z"></path><g opacity="1"  transform="translate(0.5595703125 1.79296875)  rotate(0)"><g opacity="1"  transform="translate(-0.0009765625 0.000244140625)  rotate(0)"><path id="直线 1 (轮廓)" fill-rule="evenodd" style="fill:#666666" opacity="1" d="M1.7647 0.000213623L0.00262833 2.27826L1.5846 3.50192L3.34668 1.22388L1.7647 0.000213623Z"></path><path id="直线 1 (轮廓)" fill-rule="evenodd" style="fill:#666666" opacity="1" d="M4.28908 1.341L4.20333 4.05965L6.20233 4.1227L6.28809 1.40405L4.28908 1.341Z"></path></g><g opacity="1"  transform="translate(14.90234375 0.000244140625)  rotate(0)"><path id="直线 1 (轮廓)" fill-rule="evenodd" style="fill:#666666" opacity="1" d="M-3.3476 1.22391L-1.58553 3.50195L-0.0035497 2.27829L-1.76562 0.000244141L-3.3476 1.22391Z"></path><path id="直线 1 (轮廓)" fill-rule="evenodd" style="fill:#666666" opacity="1" d="M-6.28904 1.40412L-6.20329 4.12276L-4.20429 4.05971L-4.29004 1.34106L-6.28904 1.40412Z"></path></g></g></g></g></svg>