<svg xmlns="http://www.w3.org/2000/svg" xmlns:xlink="http://www.w3.org/1999/xlink" width="24" height="24" viewBox="0 0 24 24" fill="none"><g opacity="1"  transform="translate(0 0)  rotate(0)"><path id="路径 1 (轮廓)" fill-rule="evenodd" style="fill:#666666" opacity="1" d="M2.80633,13.28l-0.57,-0.55l0.4,-0.68h0.01c2.4,-4.03001 5.50001,-6.05 9.28997,-6.05c3.38,0 6.5001,1.98999 9.3701,5.98l0.5,0.69l-0.6,0.6c-3.17,3.1499 -6.3901,4.7299 -9.6601,4.7299c-2.58996,0 -5.50997,-1.5699 -8.73997,-4.7199zM11.9363,7.99999c-2.81996,0 -5.20997,1.46999 -7.14997,4.40001c2.59001,2.4 4.85001,3.6 6.75997,3.6c2.52,0 5.06,-1.18 7.6201,-3.55c-2.3101,-2.97002 -4.7201,-4.45001 -7.2301,-4.45001z"></path><path id="路径 2 (轮廓)" fill-rule="evenodd" style="fill:#666666" opacity="1" d="M15.1745,11.9963c0,1.81 -1.46,3.27 -3.27,3.27c-1.8,0 -3.25997,-1.47 -3.25997,-3.27c0,-1.8 1.45997,-3.25997 3.25997,-3.25997c1.81,0 3.27,1.44997 3.27,3.25997zM11.9045,13.2663c0.7,0 1.27,-0.57 1.27,-1.27c0,-0.7 -0.57,-1.26 -1.27,-1.26c-0.7,0 -1.26,0.56 -1.26,1.26c0,0.7 0.56,1.27 1.26,1.27z"></path></g></svg>