<svg xmlns="http://www.w3.org/2000/svg" xmlns:xlink="http://www.w3.org/1999/xlink" width="12" height="12" viewBox="0 0 12 12" fill="none"><g opacity="1"  transform="translate(0 0)  rotate(0)"><path id="圆形 2" fill-rule="evenodd" style="fill:#E5E5E5" opacity="1" d="M6 12C2.69 12 0 9.31 0 6C0 2.69 2.69 0 6 0C9.31 0 12 2.69 12 6C12 9.31 9.31 12 6 12Z"></path><g opacity="1"  transform="translate(5 2.5)  rotate(0)"><path id="圆形 3" fill-rule="evenodd" style="fill:#111111" opacity="1" d="M1 7C0.45 7 0 6.55 0 6C0 5.45 0.45 5 1 5C1.55 5 2 5.45 2 6C2 6.55 1.55 7 1 7Z"></path><path id="矩形 7" fill-rule="evenodd" style="fill:#111111" opacity="1" d="M0.400391 0L1.60039 0L1.60039 4L0.400391 4L0.400391 0Z"></path></g></g></svg>