<svg xmlns="http://www.w3.org/2000/svg" xmlns:xlink="http://www.w3.org/1999/xlink" width="16" height="16" viewBox="0 0 16 16" fill="none"><g opacity="1"  transform="translate(0 0)  rotate(0)"><path id="并集" fill-rule="evenodd" style="fill:#111111" opacity="1" d="M13.4,7.14c0,1.11316 -0.3001,2.15665 -0.8232,3.0568l3.1373,3.1028l-1.4222,1.4064l-2.9924,-2.9595c-1.0962,0.9607 -2.53429,1.5435 -4.0995,1.5435c-3.42,0 -6.2,-2.73 -6.2,-6.15c0,-3.39 2.81,-6.14 6.2,-6.14c3.42,0 6.2,2.72 6.2,6.14zM7.2,11.29c2.29,0 4.2,-1.86 4.2,-4.15c0,-2.32 -1.88,-4.14 -4.2,-4.14c-2.29,0 -4.2,1.85 -4.2,4.14c0,2.32 1.88,4.15 4.2,4.15z"></path></g></svg>