<svg xmlns="http://www.w3.org/2000/svg" xmlns:xlink="http://www.w3.org/1999/xlink" width="334" height="4" viewBox="0 0 334 4" fill="none"><defs><path id="path_0"
        transform="translate(0 0) rotate(0 167 2)"
        d="M2,4L332,4C332.53,4 333.04,3.79 333.41,3.41C333.79,3.04 334,2.53 334,2L334,2C334,1.47 333.79,0.96 333.41,0.59C333.04,0.21 332.53,0 332,0L2,0C1.47,0 0.96,0.21 0.59,0.59C0.21,0.96 0,1.47 0,2L0,2C0,2.53 0.21,3.04 0.59,3.41C0.96,3.79 1.47,4 2,4Z" /></defs><g opacity="1" transform="translate(0 0)  rotate(0 167 2)"><mask id="mask-0" fill="white"><use xlink:href="#path_0"></use></mask><g mask="url(#mask-0)"></g><g mask="url(#mask-0)"><g opacity="1" transform="translate(-5 0)  rotate(0 173 2)"><path id="矩形 2" fill-rule="evenodd" style="fill:#6B91A8" transform="translate(0 0)  rotate(0 13.26917510853835 2)" opacity="1" d="M0,4L24.03,4L26.54,0L2.5,0L0,4Z " /><path id="矩形 2" fill-rule="evenodd" style="fill:#6B91A8" transform="translate(116.16787264833575 0)  rotate(0 13.26917510853835 2)" opacity="1" d="M0,4L24.03,4L26.54,0L2.5,0L0,4Z " /><path id="矩形 2" fill-rule="evenodd" style="fill:#6B91A8" transform="translate(58.08393632416787 0)  rotate(0 13.26917510853835 2)" opacity="1" d="M0,4L24.03,4L26.54,0L2.5,0L0,4Z " /><path id="矩形 2" fill-rule="evenodd" style="fill:#6B91A8" transform="translate(174.25180897250362 0)  rotate(0 13.26917510853835 2)" opacity="1" d="M0,4L24.03,4L26.54,0L2.5,0L0,4Z " /><path id="矩形 2" fill-rule="evenodd" style="fill:#6B91A8" transform="translate(232.3357452966715 0)  rotate(0 13.26917510853835 2)" opacity="1" d="M0,4L24.03,4L26.54,0L2.5,0L0,4Z " /><path id="矩形 2" fill-rule="evenodd" style="fill:#C87D7C" transform="translate(29.041968162083936 0)  rotate(0 13.26917510853835 2)" opacity="1" d="M0,4L24.03,4L26.54,0L2.5,0L0,4Z " /><path id="矩形 2" fill-rule="evenodd" style="fill:#C87D7C" transform="translate(145.20984081041968 0)  rotate(0 13.26917510853835 2)" opacity="1" d="M0,4L24.03,4L26.54,0L2.5,0L0,4Z " /><path id="矩形 2" fill-rule="evenodd" style="fill:#C87D7C" transform="translate(87.12590448625181 0)  rotate(0 13.26917510853835 2)" opacity="1" d="M0,4L24.03,4L26.54,0L2.5,0L0,4Z " /><path id="矩形 2" fill-rule="evenodd" style="fill:#C87D7C" transform="translate(203.29377713458754 0)  rotate(0 13.26917510853835 2)" opacity="1" d="M0,4L24.03,4L26.54,0L2.5,0L0,4Z " /><path id="矩形 2" fill-rule="evenodd" style="fill:#C87D7C" transform="translate(261.3777134587554 0)  rotate(0 13.26917510853835 2)" opacity="1" d="M0,4L24.03,4L26.54,0L2.5,0L0,4Z " /><path id="矩形 2" fill-rule="evenodd" style="fill:#6B91A8" transform="translate(290.41968162083936 0)  rotate(0 13.26917510853835 2)" opacity="1" d="M0,4L24.03,4L26.54,0L2.5,0L0,4Z " /><path id="矩形 2" fill-rule="evenodd" style="fill:#C87D7C" transform="translate(319.4616497829233 0)  rotate(0 13.26917510853835 2)" opacity="1" d="M0,4L24.03,4L26.54,0L2.5,0L0,4Z " /></g></g></g></svg>