<?xml version="1.0" standalone="no"?><!DOCTYPE svg PUBLIC "-//W3C//DTD SVG 1.1//EN" "http://www.w3.org/Graphics/SVG/1.1/DTD/svg11.dtd"><svg t="1698508967468" class="icon" viewBox="0 0 1024 1024" version="1.1" xmlns="http://www.w3.org/2000/svg" p-id="4656" xmlns:xlink="http://www.w3.org/1999/xlink" width="64" height="64"><path d="M512 637.207c-171.753 0-343.273-52.363-465.455-156.858a34.91 34.91 0 1 1 46.546-53.062c215.505 186.182 623.244 186.182 837.818 0a34.91 34.91 0 0 1 46.546 53.062C855.273 584.844 683.753 637.207 512 637.207z" p-id="4657" fill="#222222"></path><path d="M384.465 791.273a28.625 28.625 0 0 1-6.283 0 34.676 34.676 0 0 1-29.091-42.124l23.273-137.309a34.91 34.91 0 1 1 69.818 12.102L418.909 761.25a34.91 34.91 0 0 1-34.444 30.022z m523.171-69.818a34.444 34.444 0 0 1-24.669-10.473L768.233 594.618a34.91 34.91 0 1 1 49.57-48.873L932.539 662.11a34.91 34.91 0 0 1 0 49.338 36.305 36.305 0 0 1-24.902 10.008z m-791.272 0a36.305 36.305 0 0 1-23.273-10.008 34.91 34.91 0 0 1 0-49.338l114.734-116.364A34.91 34.91 0 1 1 256 594.618L141.265 710.982a34.444 34.444 0 0 1-24.901 10.473z m524.8 69.818a34.91 34.91 0 0 1-34.211-28.858l-23.273-137.31a34.91 34.91 0 1 1 67.956-13.265l23.273 137.31a34.676 34.676 0 0 1-28.16 40.494 28.625 28.625 0 0 1-5.585 1.629z" p-id="4658" fill="#222222"></path></svg>