<?xml version="1.0" standalone="no"?><!DOCTYPE svg PUBLIC "-//W3C//DTD SVG 1.1//EN" "http://www.w3.org/Graphics/SVG/1.1/DTD/svg11.dtd"><svg t="1698509061510" class="icon" viewBox="0 0 1024 1024" version="1.1" xmlns="http://www.w3.org/2000/svg" p-id="1738" xmlns:xlink="http://www.w3.org/1999/xlink" width="64" height="64"><path d="M983.038771 262.208952h-188.927764c17.407978-26.495967 27.647965-57.919928 27.647966-91.519885C821.758973 76.609184 742.527072 0.00128 645.119194 0.00128 592.12726 0.00128 544.38332 22.785252 511.99936 58.625207A179.071776 179.071776 0 0 0 378.879526 0.00128C281.471648 0.00128 202.239747 76.545184 202.239747 170.689067c0 33.599958 10.111987 65.023919 27.647966 91.519885H40.959949a40.25595 40.25595 0 0 0-40.959949 39.551951V549.120594c0 5.439993 4.607994 9.855988 10.239987 9.855987h51.199936v425.471468c0 21.887973 18.303977 39.551951 40.959949 39.551951h819.198976c22.655972 0 40.959949-17.663978 40.959949-39.551951V558.976581h51.199936c5.631993 0 10.239987-4.479994 10.239987-9.855987V301.760903a40.25595 40.25595 0 0 0-40.959949-39.551951z m-427.519465-91.519885c0-47.74394 40.19195-86.591892 89.599888-86.591892 49.407938 0 89.599888 38.847951 89.599888 86.591892s-40.19195 86.527892-89.599888 86.527891h-89.599888V170.689067zM378.879526 84.097175c49.407938 0 89.599888 38.847951 89.599888 86.591892v86.527891h-89.599888c-49.407938 0-89.599888-38.783952-89.599888-86.527891 0-47.74394 40.19195-86.591892 89.599888-86.591892zM87.039891 474.880686V346.240847h381.439523v128.639839H87.039891z m61.439923 84.095895h319.9996v380.927524h-319.9996V558.976581z m727.039092 380.927524h-319.9996V558.976581h319.9996v380.927524z m61.439923-465.023419H555.519306V346.240847h381.439523v128.639839z" fill="#222222" p-id="1739"></path></svg>