<?xml version="1.0" standalone="no"?><!DOCTYPE svg PUBLIC "-//W3C//DTD SVG 1.1//EN" "http://www.w3.org/Graphics/SVG/1.1/DTD/svg11.dtd"><svg t="1698424128985" class="icon" viewBox="0 0 1024 1024" version="1.1" xmlns="http://www.w3.org/2000/svg" p-id="3127" xmlns:xlink="http://www.w3.org/1999/xlink" width="64" height="64"><path d="M650.3 535.5C721.1 489.9 768 410.4 768 320c0-141.4-114.6-256-256-256S256 178.6 256 320c0 90.5 46.9 170 117.8 215.5C211.9 592.5 96 746.7 96 928v0.3c0 17.5 14.4 31.7 31.9 31.7h769c17.2 0 31-13.9 31.1-31.1v-3.2c-1-180.8-116.5-333.6-277.7-390.2z m-274.1-79.7C340 419.5 320 371.3 320 320s20-99.5 56.2-135.8C412.5 148 460.7 128 512 128s99.5 20 135.8 56.2C684 220.5 704 268.7 704 320s-20 99.5-56.2 135.8C611.5 492 563.3 512 512 512s-99.5-20-135.8-56.2zM161.4 896.1c3.2-36.2 12-71.4 26.2-105 17.7-41.9 43.1-79.6 75.5-111.9 32.3-32.3 70-57.7 111.9-75.5 43.4-18.4 89.5-27.7 137-27.7s93.5 9.2 136.7 27.4c41.8 17.6 79.4 42.8 111.6 74.9 32.3 32.1 57.7 69.5 75.5 111.2 14.5 34 23.5 69.7 26.8 106.6H161.4z" fill="#222222" p-id="3128"></path></svg>