<?xml version="1.0" encoding="utf-8"?>
<!-- Generator: Adobe Illustrator 27.4.1, SVG Export Plug-In . SVG Version: 6.00 Build 0)  -->
<svg version="1.1" id="图层_1" xmlns="http://www.w3.org/2000/svg" xmlns:xlink="http://www.w3.org/1999/xlink" x="0px" y="0px"
	 viewBox="0 0 1000 1000" style="enable-background:new 0 0 1000 1000;" xml:space="preserve">
<style type="text/css">
	.st0{fill:#F9F9F9;}
	.st1{fill:#CCCCCC;}
</style>
<path class="st0" d="M0.37,0H1000v1000H0L0.37,0z"/>
<g>
	<path class="st1" d="M642.4,550.41V424.98c0-37.06-30.32-67.38-67.38-67.38H424.98c-37.06,0-67.38,30.32-67.38,67.38v150.04
		c0,37.06,30.32,67.38,67.38,67.38h134.88c0,0,0,0,0,0c11.48,16.16,30.34,26.71,51.67,26.71c35,0,63.37-28.37,63.37-63.37
		C674.89,581.96,661.78,561.24,642.4,550.41z M429.91,413.09c12.1,0,21.91,9.81,21.91,21.91s-9.81,21.91-21.91,21.91
		S408,447.1,408,435S417.81,413.09,429.91,413.09z M424.99,632.4c-15.26,0-29.65-5.99-40.52-16.86
		c-10.88-10.88-16.87-25.27-16.87-40.52v-14.99c22.01-13.72,45.84-25.98,59.6-25.12c30.49,1.9,33.96,45.34,57.18,41.72
		c23.22-3.62,47.27-76.37,88.55-76.5c15.65-0.05,37.89,12.2,59.47,27.43v18.35c0,0,0,0,0,0c-6.54-2.28-13.56-3.54-20.87-3.54
		c-35,0-63.37,28.37-63.37,63.37c0,9.53,2.12,18.55,5.88,26.66H424.99z M611.53,659.11c-29.43,0-53.37-23.94-53.37-53.37
		s23.94-53.37,53.37-53.37s53.37,23.94,53.37,53.37S640.95,659.11,611.53,659.11z"/>
	<polygon class="st1" points="616.53,576.49 606.53,576.49 606.53,614.13 642.26,614.13 642.26,604.13 616.53,604.13 	"/>
</g>
</svg>
