<svg id="图层_1" data-name="图层 1" xmlns="http://www.w3.org/2000/svg" xmlns:xlink="http://www.w3.org/1999/xlink" viewBox="0 0 1200 1200"><defs><style>.cls-1{fill:none;}.cls-2{clip-path:url(#clip-path);}.cls-3{fill:#f5f5f5;}.cls-4{fill:#fff;}.cls-5{fill:#ddd;}</style><clipPath id="clip-path" transform="translate(0)"><rect class="cls-1" width="1200" height="1200"/></clipPath></defs><g class="cls-2"><rect class="cls-3" width="1200" height="1200"/><path class="cls-4" d="M488.39,463.1H711.61a51,51,0,0,1,51,50.95V686a51,51,0,0,1-51,50.95H488.39a51,51,0,0,1-51-50.95V514.05A51,51,0,0,1,488.39,463.1Z" transform="translate(0)"/><circle class="cls-5" cx="518.72" cy="535.83" r="17.38"/><path class="cls-5" d="M565.78,634.22,523,600l-85.57,85.56V686a51,51,0,0,0,51,50.95H711.61a51,51,0,0,0,51-50.95v-.39L617.11,574.33Z" transform="translate(0)"/></g></svg>