<?xml version="1.0" encoding="utf-8"?>
<!-- Generator: Adobe Illustrator 26.1.0, SVG Export Plug-In . SVG Version: 6.00 Build 0)  -->
<svg version="1.1" id="图层_1" xmlns="http://www.w3.org/2000/svg" xmlns:xlink="http://www.w3.org/1999/xlink" x="0px" y="0px"
	 viewBox="0 0 24 24" style="enable-background:new 0 0 24 24;" xml:space="preserve">
<style type="text/css">
	.st0{filter:url(#Adobe_OpacityMaskFilter);}
	.st1{fill:#FFFFFF;}
	.st2{mask:url(#bg-mask-0_00000021804012800652985200000006168665566442029193_);}
	.st3{filter:url(#Adobe_OpacityMaskFilter_00000018213296241305500740000011695139471918572674_);}
	.st4{mask:url(#mask-1_00000165925566665181796140000010927964546891466911_);}
	.st5{filter:url(#Adobe_OpacityMaskFilter_00000101804876561280564510000014530916060146380944_);}
	.st6{mask:url(#mask-1_00000001662895285992911080000003940955227911674783_);}
	.st7{fill:#222222;}
	.st8{fill:none;stroke:#222222;stroke-linecap:round;stroke-linejoin:round;stroke-dasharray:0,0;}
</style>
<g transform="translate(0 0)  rotate(0 12 12)">
	<defs>
		<filter id="Adobe_OpacityMaskFilter" filterUnits="userSpaceOnUse" x="1.5" y="1.5" width="21" height="21">
			<feColorMatrix  type="matrix" values="1 0 0 0 0  0 1 0 0 0  0 0 1 0 0  0 0 0 1 0"/>
		</filter>
	</defs>
	
		<mask maskUnits="userSpaceOnUse" x="1.5" y="1.5" width="21" height="21" id="bg-mask-0_00000021804012800652985200000006168665566442029193_">
		<g class="st0">
			<rect id="path_0_00000152983281371547567460000008220738563977302675_" class="st1" width="24" height="24"/>
		</g>
	</mask>
	<g class="st2">
		<defs>
			<filter id="Adobe_OpacityMaskFilter_00000102517800253398779970000007237211544831147933_" filterUnits="userSpaceOnUse">
				<feColorMatrix  type="matrix" values="1 0 0 0 0  0 1 0 0 0  0 0 1 0 0  0 0 0 1 0"/>
			</filter>
		</defs>
		<mask maskUnits="userSpaceOnUse" id="mask-1_00000165925566665181796140000010927964546891466911_">
			<g style="filter:url(#Adobe_OpacityMaskFilter_00000102517800253398779970000007237211544831147933_);">
				<path id="path_1_00000063629002170502494120000000020705269665864842_" class="st1" d="M0,24h24V0H0V24z"/>
			</g>
		</mask>
		<g class="st4">
		</g>
		<defs>
			
				<filter id="Adobe_OpacityMaskFilter_00000032646070339369714810000008241123635619574166_" filterUnits="userSpaceOnUse" x="1.5" y="1.5" width="21" height="21">
				<feColorMatrix  type="matrix" values="1 0 0 0 0  0 1 0 0 0  0 0 1 0 0  0 0 0 1 0"/>
			</filter>
		</defs>
		
			<mask maskUnits="userSpaceOnUse" x="1.5" y="1.5" width="21" height="21" id="mask-1_00000001662895285992911080000003940955227911674783_">
			<g style="filter:url(#Adobe_OpacityMaskFilter_00000032646070339369714810000008241123635619574166_);">
				<path id="path_1_00000114769570490502597670000004093108274579015830_" class="st1" d="M0,24h24V0H0V24z"/>
			</g>
		</mask>
		<g class="st6">
			<g transform="translate(1.5 1.5)  rotate(0 10.5 10.5)">
				<g id="h">
					<path class="st7" d="M10.5,1c5.2,0,9.5,4.3,9.5,9.5S15.7,20,10.5,20S1,15.7,1,10.5S5.3,1,10.5,1 M10.5,0C4.7,0,0,4.7,0,10.5
						S4.7,21,10.5,21S21,16.3,21,10.5S16.3,0,10.5,0L10.5,0z"/>
				</g>
				<path id="l" class="st8" d="M13.8,6.7c0,0-3.8-2.9-5.7,0c-2.2,3.3,6.2,3.3,5.2,6.7c-0.8,2.9-4.5,1.5-6.2,0.5"/>
				<path id="p" class="st8" d="M10.5,3.8v13.4"/>
			</g>
		</g>
	</g>
</g>
</svg>
